# xmcd
#
# Track frame offsets:
#	150
#	16357
#	24095
#	30477
#	36352
#	44780
#	48197
#	55905
#	68062
#	77945
#	94177
#	103900
#	121767
#	136757
#	165042
#	180150
#	198020
#	212950
#	223712
#	245740
#	257845
#	271870
#
# Disc length: 3860 seconds
#
# Revision: 1
# Processed by: cddbd v1.5.1PL0 Copyright (c) Steve Scherf et al.
# Submitted via: CDex 1.50Beta5
#
DISCID=290f1216
DTITLE=MAHO堂 - おジャ魔女どれみ＃ MEMORIAL CD BOX disc4
DYEAR=2003
DGENRE=Anime
TTITLE0=ぽっぷな勇気
TTITLE1=女王様のひみつの花園
TTITLE2=どれみとぽっぷのケンカ
TTITLE3=切ない気持ち
TTITLE4=ウィッチー・クィーン・ハート
TTITLE5=みんな、がんばれ！
TTITLE6=危険なお花〜逃げろや逃げろ
TTITLE7=どれみとぽっぷの仲なおり
TTITLE8=みんなの妹〜お家へ帰ろう
TTITLE9=ぽっぷな勇気(メロカラ)
TTITLE10=ルビナスの子守唄・ピアノソロバージョン
TTITLE11=夏のまほう
TTITLE12=カエルが一つなきゃ
TTITLE13=「魔百合の愛のテーマ」(劇場用BGM)
TTITLE14=カエルが一つなきゃ(劇場Version)
TTITLE15=夏のまほう(オリジナルカラオケ)
TTITLE16=カエルが一つなきゃ(オリジナルカラオケ)
TTITLE17=ルビナスの子守唄(Another Version)
TTITLE18=ホップ・ステップポップ(カラオケ)
TTITLE19=空までJumping(メロカラ)
TTITLE20=ともだちの唄(メロカラ)
TTITLE21=声をきかせて(メロカラ)
EXTD=
EXTT0=
EXTT1=
EXTT2=
EXTT3=
EXTT4=
EXTT5=
EXTT6=
EXTT7=
EXTT8=
EXTT9=
EXTT10=
EXTT11=
EXTT12=
EXTT13=
EXTT14=
EXTT15=
EXTT16=
EXTT17=
EXTT18=
EXTT19=
EXTT20=
EXTT21=
PLAYORDER=
